<?xml version="1.0" encoding="utf-8"?>
<!-- Generator: Adobe Illustrator 15.1.0, SVG Export Plug-In . SVG Version: 6.00 Build 0)  -->
<!DOCTYPE svg PUBLIC "-//W3C//DTD SVG 1.1//EN" "http://www.w3.org/Graphics/SVG/1.1/DTD/svg11.dtd">
<svg version="1.1" id="Layer_1" xmlns="http://www.w3.org/2000/svg" xmlns:xlink="http://www.w3.org/1999/xlink" x="0px" y="0px"
	 width="197.14px" height="197.15px" viewBox="0 0 197.14 197.15" enable-background="new 0 0 197.14 197.15" xml:space="preserve">
<g>
	<path fill="#FFFFFF" d="M98.392-0.344c-54.437,0-98.571,44.13-98.571,98.571c0,54.44,44.135,98.57,98.571,98.57
		c54.44,0,98.571-44.13,98.571-98.57C196.963,43.786,152.832-0.344,98.392-0.344"/>
	<path fill="#F26522" d="M98.392,3.799c-52.148,0-94.428,42.275-94.428,94.428c0,52.15,42.279,94.426,94.428,94.426
		c52.152,0,94.428-42.276,94.428-94.426C192.819,46.074,150.544,3.799,98.392,3.799 M98.392,186.503
		c-48.753,0-88.275-39.523-88.275-88.278S49.638,9.949,98.392,9.947c48.754,0.002,88.275,39.524,88.279,88.278
		C186.667,146.979,147.146,186.503,98.392,186.503 M159.58,37.037c-15.66-15.66-37.29-25.345-61.188-25.345
		c-23.898,0.002-45.524,9.685-61.188,25.345C21.543,52.7,11.862,74.328,11.862,98.225c0,23.899,9.681,45.525,25.341,61.191
		c15.664,15.66,37.29,25.343,61.188,25.343s45.528-9.683,61.188-25.343c15.659-15.666,25.343-37.292,25.343-61.191
		C184.923,74.328,175.239,52.7,159.58,37.037 M55.512,86.597c0,1.079-0.466,1.492-1.542,1.492h-6.592v26.505
		c0,1.085-0.36,1.55-1.44,1.55h-5.56c-1.081,0-1.491-0.465-1.491-1.55V88.089h-6.59c-1.082,0-1.543-0.413-1.543-1.492v-4.014
		c0-1.082,0.461-1.442,1.543-1.442H53.97c1.076,0,1.542,0.361,1.542,1.442V86.597z M85.158,116.144h-6.383
		c-1.083,0-1.699-0.725-2.163-1.55l-5.25-9.106l-4.581,9.106c-0.411,0.825-1.083,1.55-2.161,1.55h-5.973
		c-1.032,0-1.083-0.981-0.617-1.803l9.06-16.37l-8.649-15.133c-0.514-0.875-0.461-1.698,0.617-1.698h6.385
		c1.081,0,1.698,0.616,2.213,1.542l4.682,8.237l4.376-8.237c0.465-0.874,1.133-1.542,2.213-1.542H84.8
		c1.078,0,1.234,0.668,0.718,1.542L76.46,98.076l9.469,16.518C86.39,115.419,86.24,116.144,85.158,116.144 M115.815,130.792
		c0,9.805-7.842,16.099-23.425,16.099h-1.135c-2.167,0-3.094-0.825-3.094-2.992v-7.326c0-2.167,0.927-3.096,3.094-3.096h1.135
		c4.229,0,6.399-1.135,6.399-4.542V69.294c0-0.029-0.004-0.055-0.004-0.081V51.761c11.32,1.536,17.029,7.325,17.029,15.676V130.792z
		 M142.147,125.222c-15.789,0-21.563-7.225-21.563-14.035v-2.165c0-1.96,0.721-2.785,2.782-2.785h9.493
		c2.067,0,2.788,0.825,2.788,2.785v1.443c0,2.785,3.402,3.304,6.5,3.304s6.606-0.519,6.606-3.304v-0.929
		c0-1.34-0.826-1.959-4.024-3.197l-14.551-5.571c-3.82-1.447-8.154-6.192-8.154-11.25v-2.888c0-6.81,4.955-14.652,20.64-14.652
		c15.684,0,20.637,7.842,20.637,14.652v1.444c0,2.064-0.721,2.89-2.888,2.89h-9.392c-2.063,0-2.784-0.826-2.784-2.89v-1.444
		c0-2.787-2.788-3.303-5.675-3.303c-2.891,0-5.574,0.516-5.574,3.303v0.516c0,1.548,1.136,2.372,2.167,2.787l14.448,5.159
		c6.911,2.478,10.318,6.19,10.318,11.146v4.95C163.922,117.997,157.938,125.222,142.147,125.222"/>
</g>
</svg>
